<?xml version="1.0" encoding="UTF-8" standalone="no"?>
<svg
   xmlns:dc="http://purl.org/dc/elements/1.1/"
   xmlns:cc="http://creativecommons.org/ns#"
   xmlns:rdf="http://www.w3.org/1999/02/22-rdf-syntax-ns#"
   xmlns:svg="http://www.w3.org/2000/svg"
   xmlns="http://www.w3.org/2000/svg"
   xmlns:xlink="http://www.w3.org/1999/xlink"
   xmlns:sodipodi="http://sodipodi.sourceforge.net/DTD/sodipodi-0.dtd"
   xmlns:inkscape="http://www.inkscape.org/namespaces/inkscape"
   width="3064.1511pt"
   height="2770.7754pt"
   viewBox="0 0 3064.1511 2770.7754"
   version="1.1"
   id="svg15721"
   inkscape:version="0.91 r13725"
   sodipodi:docname="handsanitizerspray.svg">
  <metadata
     id="metadata15761">
    <rdf:RDF>
      <cc:Work
         rdf:about="">
        <dc:format>image/svg+xml</dc:format>
        <dc:type
           rdf:resource="http://purl.org/dc/dcmitype/StillImage" />
        <dc:title></dc:title>
        <dc:creator>
          <cc:Agent>
            <dc:title>j4p4n</dc:title>
          </cc:Agent>
        </dc:creator>
        <cc:license
           rdf:resource="http://creativecommons.org/publicdomain/zero/1.0/" />
      </cc:Work>
      <cc:License
         rdf:about="http://creativecommons.org/publicdomain/zero/1.0/">
        <cc:permits
           rdf:resource="http://creativecommons.org/ns#Reproduction" />
        <cc:permits
           rdf:resource="http://creativecommons.org/ns#Distribution" />
        <cc:permits
           rdf:resource="http://creativecommons.org/ns#DerivativeWorks" />
      </cc:License>
    </rdf:RDF>
  </metadata>
  <defs
     id="defs15759">
    <linearGradient
       id="linearGradient39857"
       inkscape:collect="always">
      <stop
         id="stop39859"
         offset="0"
         style="stop-color:#f4e058;stop-opacity:1;" />
      <stop
         id="stop39861"
         offset="1"
         style="stop-color:#f4e058;stop-opacity:0;" />
    </linearGradient>
    <radialGradient
       gradientUnits="userSpaceOnUse"
       gradientTransform="matrix(1,0,0,0.93747505,0,2.5630823)"
       r="39.134155"
       fy="40.99295"
       fx="-1321.5769"
       cy="40.99295"
       cx="-1321.5769"
       id="radialGradient39863"
       xlink:href="#linearGradient39857"
       inkscape:collect="always" />
  </defs>
  <sodipodi:namedview
     pagecolor="#ffffff"
     bordercolor="#666666"
     borderopacity="1"
     objecttolerance="10"
     gridtolerance="10"
     guidetolerance="10"
     inkscape:pageopacity="0"
     inkscape:pageshadow="2"
     inkscape:window-width="1916"
     inkscape:window-height="1035"
     id="namedview15757"
     showgrid="false"
     fit-margin-top="0"
     fit-margin-left="0"
     fit-margin-right="0"
     fit-margin-bottom="0"
     inkscape:zoom="0.11380756"
     inkscape:cx="501.50701"
     inkscape:cy="2526.7226"
     inkscape:window-x="4"
     inkscape:window-y="1"
     inkscape:window-maximized="1"
     inkscape:current-layer="g4439" />
  <g
     id="g16362"
     transform="translate(1144.1043,264.75672)">
    <g
       id="g4439">
      <g
         id="g4552">
        <path
           id="path15725"
           d="m 646.23,306.22 c 10.06,-0.05 20.12,0.01 30.19,-0.02 0.01,2.37 0.02,4.73 0.04,7.11 147.86,1.04 295.71,2.28 443.56,3.37 3.29,0.05 6.03,2.14 8.94,3.42 45.14,21.87 90.26,43.78 135.4,65.63 3.79,2.09 5.69,6.28 8.53,9.4 -4.15,4.12 -7.55,9.05 -12.21,12.6 -9.61,5.71 -19.45,11.01 -28.9,16.98 -7.34,4.66 -15.11,8.71 -21.65,14.49 -6.56,5.7 -14.31,10.22 -19.52,17.32 -6.93,8.82 -14.73,16.99 -20.72,26.51 -5.03,7.64 -10.43,15.05 -15.27,22.82 -4.59,9.75 -8.8,19.68 -13.3,29.48 -1.91,4.01 -2.4,8.47 -3.31,12.78 -1.58,8.04 -3.28,16.06 -4.79,24.11 -0.91,8.23 -0.94,16.54 -1.53,24.8 -0.26,9.56 -1.81,19.03 -2.99,28.51 3.45,0.23 6.93,0.09 10.34,-0.59 0.65,4.31 1.4,8.61 2.1,12.92 -0.45,-0.27 -1.37,-0.82 -1.83,-1.1 -0.45,-3.32 -0.95,-6.63 -1.49,-9.94 -10.25,0.76 -20.51,-0.47 -30.77,-0.51 -73.11,-2.33 -146.22,-4.66 -219.34,-6.94 -0.98,15.55 -1.99,31.1 -2.8,46.66 -1.38,12.87 0.66,25.75 1.58,38.59 -0.55,0.42 -1.08,0.85 -1.59,1.29 -0.52,-13 -2.95,-25.98 -1.61,-39 0.95,-16.36 1.96,-32.73 2.98,-49.09 18.77,0.54 37.54,1.34 56.32,1.66 -0.65,-1.55 -1.92,-2.28 -3.54,-2.13 -7.71,-0.54 -15.43,-0.91 -23.13,-1.54 -6.57,-0.51 -12.47,-3.8 -18.9,-4.94 -6.34,-1.11 -12.7,-2.11 -19.08,-2.96 -5.86,-0.56 -10.28,-4.86 -15.29,-7.49 -6.85,-3.66 -11.82,-10.32 -13.83,-17.77 -18.62,0.04 -37.24,-0.21 -55.85,0.13 -5.61,18.63 -9.57,37.74 -16.05,56.11 -3.12,7.85 -8.28,14.67 -11.68,22.39 -4,8.28 -6.34,17.46 -12.08,24.81 -5.02,6.5 -9.53,13.36 -14.26,20.06 -15.96,22.63 -32.97,44.64 -52.53,64.29 -8.52,8.57 -18.12,15.96 -27.68,23.32 -2.9,2.19 -5.61,4.72 -8.99,6.2 0.56,-4.35 1.31,-8.67 2.25,-12.95 1.09,-5.45 6.28,-8.51 8.79,-13.2 3.31,-6.02 4.9,-13.06 9.85,-18.08 5.11,-5.95 11,-11.21 17.52,-15.57 8.11,-5.36 14.32,-13.36 17.68,-22.47 3.94,-10.84 7.45,-22.1 7.51,-33.74 0.23,-13.29 -0.42,-26.6 0.41,-39.88 1.08,-20.65 7.84,-40.52 8.97,-61.17 0.74,-9.81 1.14,-19.65 1.4,-29.48 0.13,-6.16 0.17,-12.33 -0.07,-18.48 -0.7,-10.43 1.86,-20.66 2.94,-30.97 1.01,-10.14 4.71,-19.78 9.16,-28.86 2.67,-5.33 6.68,-9.78 9.97,-14.7 -7.32,-4.84 -14.58,-9.75 -21.87,-14.62 -1.51,-1.17 -3.46,-1.09 -5.24,-1.1 -14.18,0.07 -28.36,-0.01 -42.53,0.05 -0.01,1.16 -0.01,2.32 0,3.49 -11.56,0.01 -23.12,0.02 -34.68,0 -0.01,-4.36 0,-8.72 -0.01,-13.08 -23.82,0.57 -47.63,1.17 -71.45,1.73 -0.04,-1.73 -0.08,-3.45 -0.09,-5.16 0.02,-34.02 0.03,-68.04 0.01,-102.06 0,-5.48 -0.02,-10.96 0.06,-16.44 25.3,0.01 50.6,-0.02 75.9,0.02 0,-2.34 0.02,-4.68 0.05,-7.02 m 1.62,1.5 c -0.07,2.32 -0.12,4.65 -0.19,6.98 -25.29,0.23 -50.58,0.14 -75.87,0.04 -0.03,40.18 0.08,80.36 -0.06,120.54 23.83,-0.48 47.66,-1.15 71.48,-1.7 0.09,4.39 0.06,8.77 0.06,13.16 10.54,0.01 21.08,-0.04 31.63,0.01 -0.01,-46.29 0.04,-92.58 -0.02,-138.87 -9,-0.34 -18.02,-0.1 -27.03,-0.16 m 28.71,135.54 c 14.14,-0.21 28.29,0 42.43,-0.11 1.91,0.04 4.05,-0.21 5.63,1.12 6.73,4.65 13.65,9.01 20.37,13.69 2.08,1.47 4.63,2.03 6.8,3.36 21.56,14.77 43.11,29.53 64.66,44.31 38.73,25.93 77.52,51.76 116.24,77.69 3.61,4 6.88,9.04 7.1,14.6 0.49,7.05 1.87,13.96 3.58,20.8 61.29,2.27 122.58,4.89 183.89,6.69 1.06,-9.82 2.84,-19.58 2.96,-29.48 0.92,-9.63 0.23,-19.44 2.47,-28.92 1.31,-6.41 2.59,-12.82 3.84,-19.24 0.94,-4.63 1.52,-9.43 3.72,-13.69 4.58,-9.82 8.68,-19.88 13.42,-29.62 6.49,-9.71 13.01,-19.41 19.64,-29.03 5.86,-7.44 12,-14.67 17.96,-22.05 3.06,-3.99 7.33,-6.75 11.18,-9.91 4.68,-3.63 9.11,-7.59 13.96,-11 13.38,-8.43 26.92,-16.6 40.7,-24.34 5.82,-2.86 9.24,-8.65 13.81,-13.01 -2.3,-2.72 -3.98,-6.19 -7.16,-8.01 -45.32,-21.96 -90.65,-43.94 -135.97,-65.92 -2.55,-1.11 -4.94,-2.96 -7.8,-3.03 -50.67,-0.15 -101.33,-0.94 -152,-1.1 -97.15,-0.84 -194.29,-1.49 -291.44,-2.3 -0.16,42.83 -0.18,85.67 0.01,128.5 m 70.86,18.17 c -8.77,10.15 -14.76,22.49 -17.81,35.53 -1.49,7.46 -1.97,15.07 -3.25,22.57 -1.64,9.76 -0.38,19.64 -0.66,29.46 -0.33,14.43 -0.81,28.87 -2.33,43.23 -1.63,12.72 -4.72,25.18 -6.64,37.86 -2.94,18.16 -1.49,36.62 -1.93,54.93 -0.19,5.72 -0.92,11.45 -2.48,16.98 -2.72,9.94 -5.53,20.22 -11.87,28.56 -3.44,4.8 -8.08,8.55 -12.91,11.87 -6.68,4.58 -12.65,10.2 -17.65,16.58 -4.49,5.65 -5.4,13.3 -10.09,18.82 -2.23,2.83 -5.36,5.23 -6.16,8.92 -0.86,3.4 -1.37,6.89 -2.03,10.34 5.02,-3.36 9.62,-7.3 14.44,-10.93 23.74,-18.29 42.65,-41.87 60.62,-65.62 8.9,-11.81 16.96,-24.22 25.82,-36.06 5.2,-6.87 7.36,-15.36 11.04,-23.04 3.23,-7.51 8.04,-14.2 11.39,-21.65 6.51,-17.39 10.14,-35.66 15.48,-53.42 0.65,-2.37 1.25,-5.83 4.55,-5.21 18.3,-0.02 36.62,-0.14 54.93,0.08 1.34,3.99 2.72,8.09 5.61,11.28 3.12,4.39 8.13,6.67 12.57,9.45 2.85,1.66 5.57,3.83 8.96,4.25 6.62,0.91 13.22,1.96 19.81,3.06 6.89,1.2 13.2,4.77 20.26,5.13 7.94,0.47 15.87,1.18 23.83,1.55 -2.01,-8.36 -4.49,-16.58 -6.47,-24.93 -0.38,-2.4 -2.07,-4.17 -4,-5.45 -59.93,-41.1 -119.91,-82.14 -179.83,-123.26 -0.99,-0.38 -2.16,-1.81 -3.2,-0.88 z"
           inkscape:connector-curvature="0"
           style="opacity:1;fill:#080508;stroke:#080508;stroke-width:0.09375" />
        <path
           id="path15727"
           d="m 647.85,307.72 c 9.01,0.06 18.03,-0.18 27.03,0.16 0.06,46.29 0.01,92.58 0.02,138.87 -10.55,-0.05 -21.09,0 -31.63,-0.01 0,-4.39 0.03,-8.77 -0.06,-13.16 -23.82,0.55 -47.65,1.22 -71.48,1.7 0.14,-40.18 0.03,-80.36 0.06,-120.54 25.29,0.1 50.58,0.19 75.87,-0.04 0.07,-2.33 0.12,-4.66 0.19,-6.98 z"
           inkscape:connector-curvature="0"
           style="opacity:1;fill:#2e3192;stroke:#2e3192;stroke-width:0.09375" />
        <path
           id="path15729"
           d="m 676.56,443.26 c -0.19,-42.83 -0.17,-85.67 -0.01,-128.5 97.15,0.81 194.29,1.46 291.44,2.3 50.67,0.16 101.33,0.95 152,1.1 2.86,0.07 5.25,1.92 7.8,3.03 45.32,21.98 90.65,43.96 135.97,65.92 3.18,1.82 4.86,5.29 7.16,8.01 -4.57,4.36 -7.99,10.15 -13.81,13.01 -13.78,7.74 -27.32,15.91 -40.7,24.34 -4.85,3.41 -9.28,7.37 -13.96,11 -3.85,3.16 -8.12,5.92 -11.18,9.91 -5.96,7.38 -12.1,14.61 -17.96,22.05 -6.63,9.62 -13.15,19.32 -19.64,29.03 -4.74,9.74 -8.84,19.8 -13.42,29.62 -2.2,4.26 -2.78,9.06 -3.72,13.69 -1.25,6.42 -2.53,12.83 -3.84,19.24 -2.24,9.48 -1.55,19.29 -2.47,28.92 -0.12,9.9 -1.9,19.66 -2.96,29.48 -61.31,-1.8 -122.6,-4.42 -183.89,-6.69 -1.71,-6.84 -3.09,-13.75 -3.58,-20.8 -0.22,-5.56 -3.49,-10.6 -7.1,-14.6 -38.72,-25.93 -77.51,-51.76 -116.24,-77.69 -21.55,-14.78 -43.1,-29.54 -64.66,-44.31 -2.17,-1.33 -4.72,-1.89 -6.8,-3.36 -6.72,-4.68 -13.64,-9.04 -20.37,-13.69 -1.58,-1.33 -3.72,-1.08 -5.63,-1.12 -14.14,0.11 -28.29,-0.1 -42.43,0.11 z"
           inkscape:connector-curvature="0"
           style="opacity:1;fill:#3ab54b;stroke:#3ab54b;stroke-width:0.09375" />
        <path
           id="path15731"
           d="m 747.42,461.43 c 1.04,-0.93 2.21,0.5 3.2,0.88 59.92,41.12 119.9,82.16 179.83,123.26 1.93,1.28 3.62,3.05 4,5.45 1.98,8.35 4.46,16.57 6.47,24.93 -7.96,-0.37 -15.89,-1.08 -23.83,-1.55 -7.06,-0.36 -13.37,-3.93 -20.26,-5.13 -6.59,-1.1 -13.19,-2.15 -19.81,-3.06 -3.39,-0.42 -6.11,-2.59 -8.96,-4.25 -4.44,-2.78 -9.45,-5.06 -12.57,-9.45 -2.89,-3.19 -4.27,-7.29 -5.61,-11.28 -18.31,-0.22 -36.63,-0.1 -54.93,-0.08 -3.3,-0.62 -3.9,2.84 -4.55,5.21 -5.34,17.76 -8.97,36.03 -15.48,53.42 -3.35,7.45 -8.16,14.14 -11.39,21.65 -3.68,7.68 -5.84,16.17 -11.04,23.04 -8.86,11.84 -16.92,24.25 -25.82,36.06 -17.97,23.75 -36.88,47.33 -60.62,65.62 -4.82,3.63 -9.42,7.57 -14.44,10.93 0.66,-3.45 1.17,-6.94 2.03,-10.34 0.8,-3.69 3.93,-6.09 6.16,-8.92 4.69,-5.52 5.6,-13.17 10.09,-18.82 5,-6.38 10.97,-12 17.65,-16.58 4.83,-3.32 9.47,-7.07 12.91,-11.87 6.34,-8.34 9.15,-18.62 11.87,-28.56 1.56,-5.53 2.29,-11.26 2.48,-16.98 0.44,-18.31 -1.01,-36.77 1.93,-54.93 1.92,-12.68 5.01,-25.14 6.64,-37.86 1.52,-14.36 2,-28.8 2.33,-43.23 0.28,-9.82 -0.98,-19.7 0.66,-29.46 1.28,-7.5 1.76,-15.11 3.25,-22.57 3.05,-13.04 9.04,-25.38 17.81,-35.53 z"
           inkscape:connector-curvature="0"
           style="opacity:1;fill:#2e3192;stroke:#2e3192;stroke-width:0.09375" />
        <path
           id="path15733"
           d="m 707.43,560.45 c 5.51,-2.44 10.56,-6.09 16.65,-7.03 -0.26,9.83 -0.66,19.67 -1.4,29.48 -1.13,20.65 -7.89,40.52 -8.97,61.17 -0.83,13.28 -0.18,26.59 -0.41,39.88 -0.06,11.64 -3.57,22.9 -7.51,33.74 -3.36,9.11 -9.57,17.11 -17.68,22.47 -6.52,4.36 -12.41,9.62 -17.52,15.57 -6.01,1.9 -12.33,2.23 -18.54,3.04 -7.35,1.04 -14.8,0.19 -22.17,0.95 -1.19,0.43 -1.81,-0.79 -2.41,-1.5 l 0.49,-0.07 c 0.28,-0.15 0.85,-0.44 1.14,-0.59 2.21,-7.08 4.19,-14.25 7.49,-20.93 3.21,-7.97 8.27,-14.95 12.85,-22.16 2.46,-3.92 6.4,-7.45 6.35,-12.41 0.15,-5.77 0.78,-11.49 2.29,-17.06 1.56,-4.82 -2.61,-8.56 -4.53,-12.55 -2.87,-5.6 -7.49,-10.57 -13.52,-12.69 -6.19,0.44 -12.81,2.34 -16.71,7.52 -4.35,5.32 -11.23,10.12 -10.99,17.72 -1.09,14.36 -1.04,28.83 1.57,43.03 -1.99,-5.6 -3.07,-11.45 -4.72,-17.15 -2.91,-11.4 -5.61,-23.01 -5.58,-34.85 -0.06,-8.8 1.38,-17.53 3.54,-26.04 2.02,-7.92 3.17,-16.3 7.49,-23.41 2.86,-4.8 5.09,-10 8.47,-14.48 2.58,-3.47 6.42,-5.6 9.92,-8 10,-6.66 19.76,-13.67 30,-19.97 14.24,-8.91 29.27,-16.44 44.41,-23.68 z"
           inkscape:connector-curvature="0"
           style="opacity:1;fill:#e49e7c;stroke:#e49e7c;stroke-width:0.09375" />
        <path
           id="path15735"
           d="m 792.97,582.78 c 18.61,-0.34 37.23,-0.09 55.85,-0.13 2.01,7.45 6.98,14.11 13.83,17.77 5.01,2.63 9.43,6.93 15.29,7.49 6.38,0.85 12.74,1.85 19.08,2.96 6.43,1.14 12.33,4.43 18.9,4.94 7.7,0.63 15.42,1 23.13,1.54 1.62,-0.15 2.89,0.58 3.54,2.13 -18.78,-0.32 -37.55,-1.12 -56.32,-1.66 -1.02,16.36 -2.03,32.73 -2.98,49.09 -1.34,13.02 1.09,26 1.61,39 0.51,-0.44 1.04,-0.87 1.59,-1.29 4.36,-3.7 8.98,-7.1 13.21,-10.96 4.01,-4.4 7.19,-9.48 10.86,-14.15 3.43,-4.88 8.47,-8.21 12.86,-12.15 2.57,-2.1 4.87,-4.62 7.88,-6.11 20.48,-7.49 42.17,-10.86 63.69,-13.84 26.66,-0.15 53.33,-0.37 79.98,0.67 7.91,0.09 15.67,1.8 23.51,2.69 7.43,0.81 14.61,3 21.82,4.9 7,1.98 14.34,2.13 21.52,3.05 -0.88,-7.32 -1.91,-14.61 -2.51,-21.96 0.46,0.28 1.38,0.83 1.83,1.1 10.55,5.99 21.21,11.8 32.33,16.65 4.24,1.32 5.65,5.86 7.59,9.38 3.04,5.66 2.59,12.96 7.46,17.64 3.71,4.73 9.87,6.24 15.43,7.57 10.59,1.77 21.34,5.25 29.58,12.38 8.36,6.37 16.88,12.52 25.5,18.55 7.77,5.42 14.9,11.7 22.63,17.17 8.76,5.4 17.96,10.07 26.76,15.42 8.41,5.89 16.63,12.08 24.96,18.1 13.19,10.75 26.41,21.47 39.15,32.74 29.58,25.72 60.4,50.11 87.99,78.03 7.41,8.08 16.87,13.79 25.45,20.5 6.13,4.88 13.28,8.15 20.03,12.05 9.05,5.76 19.56,8.4 29.33,12.65 9.34,4.19 19.46,5.99 29.29,8.68 8.74,2.15 17.39,4.82 26.38,5.8 8.67,0.99 17.27,3.51 26.07,2.61 10.61,-0.84 21.25,-1.42 31.88,-2.2 65.69,-2.26 131.35,-5.17 197.05,-7.05 14.68,-0.23 29.36,-0.36 44.04,-0.78 9.97,0.08 19.85,-1.37 29.81,-1.67 -0.19,136.62 -0.03,273.25 -0.09,409.88 0.15,19.81 -0.3,39.64 0.24,59.45 l 0,1.06 c -42.36,-4.46 -84.91,-6.75 -127.4,-9.48 -25.89,-2.93 -51.74,-6.12 -77.61,-9.19 -11.27,-1.14 -22.46,-3.25 -33.8,-3.48 -11.72,-0.72 -23.46,-1.02 -35.18,-1.72 -10.67,-0.1 -21.23,-1.72 -31.82,-2.85 -38.75,-4.54 -77.48,-9.21 -116.14,-14.38 -8.64,-1.32 -17.4,-0.96 -26.09,-1.35 -13.16,-0.26 -26.28,-1.35 -39.43,-1.87 -11.87,-0.8 -23.74,0.27 -35.6,0.65 -12.62,0.67 -25.26,0.99 -37.88,1.6 -7.11,0.44 -14.02,-1.49 -20.98,-2.5 -6.97,-1.26 -14.06,-0.45 -21.07,-0.93 -8.36,-0.35 -16.66,-1.3 -24.99,-1.91 -8.49,-0.64 -16.77,-2.68 -25.12,-4.17 -5.67,-1.23 -11.55,-1.71 -16.98,-3.86 -6.01,-2.28 -11.95,-4.75 -17.98,-6.97 -10.38,-2.45 -21.28,-2.31 -31.46,-5.68 -10.75,-3.46 -21.84,-6.03 -32.09,-10.85 -12.78,-5.17 -25.23,-11.31 -38.56,-14.96 -2.33,-5.93 -4.36,-11.96 -6.6,-17.92 -2.25,-5.58 -2.17,-11.68 -2.92,-17.55 -1.84,-17.36 -3.81,-34.7 -5,-52.12 -1.1,-9.67 0.19,-19.38 0.32,-29.06 0.61,-7.39 0.01,-14.96 2.04,-22.16 1.19,-4.5 2.05,-9.1 3.64,-13.48 7.35,-17.96 15.47,-35.6 23.96,-53.04 5.42,-8.88 9.86,-18.42 16.45,-26.54 5.23,-6.86 10.56,-13.65 15.85,-20.47 4.36,19.49 15.45,36.48 26.53,52.77 4.85,6.73 8.82,14.22 15,19.89 10.77,10 23.03,18.6 36.48,24.6 3.47,1.81 6.26,4.64 9.48,6.84 -3.55,-5.77 -8.5,-10.47 -12.54,-15.88 -19.79,-24.16 -39.7,-48.22 -59.58,-72.3 -4.93,-6.09 -9.84,-12.22 -15.2,-17.94 -4.14,-6.64 -7.99,-13.46 -11.04,-20.68 -4.73,-10.99 -12.3,-20.52 -16.5,-31.75 -4.45,-10.75 -9.18,-21.38 -13.89,-32.02 -4.42,-9.03 -6.81,-18.84 -9.9,-28.36 -2.53,-10.12 -5.68,-20.14 -6.8,-30.55 -2.03,-12.77 -3.57,-25.61 -4.93,-38.46 -6.61,-5.32 -14.44,-9.54 -19.18,-16.79 -1.15,-1.6 -2.28,-3.2 -3.42,-4.78 -12.2,-0.14 -24.32,-1.64 -36.49,-2.18 -11.66,-0.31 -23.03,-3.16 -34.57,-4.58 -9.39,-0.92 -17.32,-6.5 -25.96,-9.77 -8.61,5.18 -15.87,12.22 -24.23,17.71 -9.04,4.25 -18.03,8.85 -27.82,11.12 -10.83,3.72 -22.35,4.24 -33.49,6.53 9.09,4.72 18.57,8.68 27.88,12.95 8.27,3.89 16.96,7.09 24.45,12.44 14.6,10.22 26.24,25.03 31.74,42.07 3.53,10.53 3.37,21.84 2.56,32.78 -1.03,12.07 -6.11,23.39 -12.92,33.27 -2.6,3.23 -6.5,4.93 -9.87,7.19 -5.76,3.79 -12.49,5.53 -18.83,8.04 6.99,5.75 15.25,9.9 21.57,16.48 6.81,6.57 9.68,15.99 11.5,25.02 1.64,8.87 2.98,18.1 0.98,27.03 -1.51,6.82 -5.56,12.63 -9.06,18.55 -3.11,5.12 -6.86,10.2 -12.35,12.95 -10.8,5.4 -21.92,10.46 -33.76,13.11 -9.68,2.2 -19.62,2.79 -29.46,3.91 -13.35,1.23 -26.45,4.67 -39.9,4.92 -11.8,0.35 -23.43,-2.02 -35.13,-3.15 5.74,5 10.96,10.82 14.04,17.87 2.88,6.62 4.52,13.77 5.21,20.95 0.53,7.09 -3.61,13.25 -6.89,19.18 -4.01,7.34 -8.69,14.49 -15.11,19.95 -10.74,9.35 -24.14,14.68 -36.52,21.44 -3.98,2.2 -7.87,4.63 -12.19,6.13 -7.21,1.7 -14.66,1.42 -21.99,2.01 -5.84,0.48 -11.79,0.79 -17.55,-0.46 -3.76,-0.84 -6.94,-3.12 -10.37,-4.74 -4.61,-2.27 -9.7,-4.01 -13.23,-7.92 -5.69,-6.22 -9.61,-13.77 -14.06,-20.86 -9.2,-15.62 -14.25,-34.82 -9.13,-52.66 1.78,-5.84 2.34,-12.56 6.97,-17.02 8.87,-8.89 18.74,-16.77 29.08,-23.88 3.61,-2.47 8.08,-2.85 12.22,-3.8 -8.37,-6.09 -16.77,-12.25 -23.82,-19.89 -6.11,-6.49 -14.74,-9.81 -20.87,-16.25 -5.48,-5.81 -9.8,-12.71 -12.79,-20.1 -3.87,-10.31 -5.6,-21.26 -6.89,-32.15 -0.97,-9.05 0.17,-18.19 2.04,-27.05 1.72,-8.27 7.11,-15.12 13,-20.91 8.48,-8.05 18.32,-14.68 28.96,-19.54 -2.44,-6.63 -5.8,-12.94 -9.71,-18.81 -5.72,-7.95 -15.43,-12 -20.65,-20.37 -3.12,-5.15 -5.72,-10.64 -7.58,-16.37 -4.14,-12.28 -2.45,-25.47 0.19,-37.88 1.75,-7.38 1.39,-15.08 3.32,-22.42 2.7,-9.73 10.06,-17.12 16.62,-24.44 7.53,-7.47 15.11,-16.09 25.78,-18.86 10.22,-2.79 20.61,-4.94 31.08,-6.57 6.83,-1.05 13.64,-2.48 20.58,-2.57 -3.96,4.51 -7.02,9.82 -8.83,15.55 -1.67,5.26 -1.18,10.88 -0.65,16.28 0.19,3.61 2.58,6.48 4.42,9.41 7.73,11.87 20.3,19.83 33.54,24.26 6.64,0.67 13.65,-0.02 19.84,-2.73 5,-2.05 10.11,-3.85 15.12,-5.93 6.28,-2.57 10.21,-8.39 15.06,-12.84 4.65,-4.36 5.97,-10.82 9.04,-16.18 1.74,-3.32 4.38,-6.8 3.48,-10.77 -2.71,-10.8 -8.39,-20.94 -8.68,-32.26 -0.51,-8.21 -1.98,-16.31 -2.75,-24.49 -6.73,2.35 -13.65,4.29 -19.93,7.72 -8.18,4.34 -16.15,9.13 -24.91,12.25 1.93,-4.23 4.73,-7.96 7.41,-11.73 3.17,-4.48 7.98,-7.35 12.04,-10.94 5.23,-4.51 10.77,-8.7 15.69,-13.57 -8.86,-4.44 -16.89,-10.7 -26.58,-13.29 -13.31,-3.77 -25.05,-11.37 -38.04,-15.94 -5.11,-1.8 -10.43,-4.96 -15.98,-3.05 -9.45,2.93 -19.39,3.3 -29.04,5.18 4.73,-6.7 9.24,-13.56 14.26,-20.06 5.74,-7.35 8.08,-16.53 12.08,-24.81 3.4,-7.72 8.56,-14.54 11.68,-22.39 6.48,-18.37 10.44,-37.48 16.05,-56.11 m 322.96,290.46 c 24.93,12.16 53.39,18.83 81.06,14.11 3.1,-0.7 6.62,-0.66 9.26,-2.69 -20.85,-2.84 -41.72,-5.57 -62.59,-8.25 -9.25,-1.04 -18.4,-3.26 -27.73,-3.17 m -193.41,48.5 c -7.18,2.96 -15.32,3.48 -21.86,7.93 -13.8,7.56 -18.96,25.89 -14.34,40.36 1.77,5.62 2.81,12.12 7.6,16.11 3.96,3.47 8.42,6.39 13.03,8.92 9.07,3.43 18.65,5.3 28.12,7.28 10.64,1.84 21.24,4.05 32,5.11 4.2,0.6 8.52,-0.87 11.6,-3.76 3.88,-3.59 8.44,-6.83 10.62,-11.82 2.06,-4.49 3.16,-9.33 4.72,-13.99 2.27,-6.69 -0.46,-13.58 -1.45,-20.24 -1.2,-7.49 -5.5,-13.86 -8.36,-20.75 -1.14,-3.06 -4.17,-4.69 -6.87,-6.14 -5.09,-2.57 -9.94,-5.7 -15.41,-7.45 -7.07,-2.32 -14.62,-1.89 -21.94,-2.39 -5.82,-0.01 -11.82,-1.06 -17.46,0.83 m -6.02,117.9 c -4.42,0.61 -8.35,2.82 -12.39,4.55 -7.77,3.42 -15.34,7.56 -21.64,13.3 -6.49,6.38 -7.74,15.93 -8.66,24.55 -0.89,6.48 3.07,12.28 7.42,16.65 2.54,2.43 4.88,5.33 8.21,6.7 15.09,4.86 30.8,7.44 46.5,9.4 8.46,1.1 16.81,-1.27 25.17,-2.13 3.45,-0.39 7.01,0.42 10.41,-0.34 3.15,-2.73 5.63,-6.23 7.83,-9.74 1.98,-7.25 3.24,-14.98 1.33,-22.39 -2.34,-10.58 -3.18,-21.78 -8.55,-31.41 -1.7,-3.18 -3.24,-6.57 -5.84,-9.13 -6.7,-0.84 -13.53,-0.1 -20.28,-0.34 -9.84,0.3 -19.72,-0.85 -29.51,0.33 m -143.58,109.45 c -3.24,1.07 -6.71,1.5 -9.8,3 -5.84,3.77 -12.04,8.53 -13.21,15.86 -0.27,5.9 0.05,11.97 1.68,17.68 3.16,7.52 11.01,11.16 17.38,15.5 6.09,4.24 13.77,5.17 21.01,4.94 10.34,-0.6 20.57,-2.48 30.7,-4.61 -3,-6.09 -6.64,-11.96 -8.79,-18.4 -1.81,-12.95 -1.14,-26.08 -2.09,-39.09 -7.29,-0.48 -14.7,-1.1 -21.92,0.31 -5.2,0.91 -9.91,3.4 -14.96,4.81 m 725.27,-1.99 c -1.88,2.03 -2.54,4.81 -3.76,7.23 -3.93,8.04 -7.43,16.29 -10.38,24.75 -3.21,9.07 -4.85,18.59 -7.08,27.94 -8.24,38.06 -9.04,77.16 -9.95,115.94 -0.17,10.23 -0.97,20.54 0.53,30.71 1.41,-0.3 2.82,-0.62 4.26,-0.9 0.04,-14.58 0.08,-29.16 0.06,-43.74 0.1,-14.69 -1.78,-29.45 0.31,-44.08 1.82,-11.66 4.07,-23.26 6.1,-34.89 1.83,-9.7 3.12,-19.51 5.35,-29.13 6.59,-17.03 13.99,-33.76 20.44,-50.85 -1.82,-1.24 -3.59,-2.87 -5.88,-2.98 z"
           inkscape:connector-curvature="0"
           style="opacity:1;fill:#e49e7c;stroke:#e49e7c;stroke-width:0.09375" />
        <path
           id="path15737"
           d="m 884.91,666.03 c 0.81,-15.56 1.82,-31.11 2.8,-46.66 73.12,2.28 146.23,4.61 219.34,6.94 10.26,0.04 20.52,1.27 30.77,0.51 0.54,3.31 1.04,6.62 1.49,9.94 0.6,7.35 1.63,14.64 2.51,21.96 -7.18,-0.92 -14.52,-1.07 -21.52,-3.05 -7.21,-1.9 -14.39,-4.09 -21.82,-4.9 -7.84,-0.89 -15.6,-2.6 -23.51,-2.69 -26.65,-1.04 -53.32,-0.82 -79.98,-0.67 -21.52,2.98 -43.21,6.35 -63.69,13.84 -3.01,1.49 -5.31,4.01 -7.88,6.11 -4.39,3.94 -9.43,7.27 -12.86,12.15 -3.67,4.67 -6.85,9.75 -10.86,14.15 -4.23,3.86 -8.85,7.26 -13.21,10.96 -0.92,-12.84 -2.96,-25.72 -1.58,-38.59 z"
           inkscape:connector-curvature="0"
           style="opacity:1;fill:#2e3192;stroke:#2e3192;stroke-width:0.09375" />
        <path
           id="path15739"
           d="m 623.32,667.28 c 3.9,-5.18 10.52,-7.08 16.71,-7.52 6.03,2.12 10.65,7.09 13.52,12.69 1.92,3.99 6.09,7.73 4.53,12.55 -1.51,5.57 -2.14,11.29 -2.29,17.06 0.05,4.96 -3.89,8.49 -6.35,12.41 -4.58,7.21 -9.64,14.19 -12.85,22.16 -3.3,6.68 -5.28,13.85 -7.49,20.93 -0.29,0.15 -0.86,0.44 -1.14,0.59 l -0.49,0.07 c -3.25,-4.8 -6.94,-9.46 -8.71,-15.05 -1.73,-5.02 -3.41,-10.04 -4.86,-15.14 -2.61,-14.2 -2.66,-28.67 -1.57,-43.03 -0.24,-7.6 6.64,-12.4 10.99,-17.72 z"
           inkscape:connector-curvature="0"
           style="opacity:1;fill:#fe0000;stroke:#fe0000;stroke-width:0.09375" />
        <path
           id="path15741"
           d="m 838.31,757.24 c 6.28,-3.43 13.2,-5.37 19.93,-7.72 0.77,8.18 2.24,16.28 2.75,24.49 0.29,11.32 5.97,21.46 8.68,32.26 0.9,3.97 -1.74,7.45 -3.48,10.77 -3.07,5.36 -4.39,11.82 -9.04,16.18 -4.85,4.45 -8.78,10.27 -15.06,12.84 -5.01,2.08 -10.12,3.88 -15.12,5.93 -6.19,2.71 -13.2,3.4 -19.84,2.73 -13.24,-4.43 -25.81,-12.39 -33.54,-24.26 -1.84,-2.93 -4.23,-5.8 -4.42,-9.41 -0.53,-5.4 -1.02,-11.02 0.65,-16.28 1.81,-5.73 4.87,-11.04 8.83,-15.55 1.97,-2.24 3.81,-4.6 5.92,-6.71 2.47,-2.5 5.88,-3.64 9.12,-4.77 6.77,-2.26 13.23,-5.3 19.71,-8.25 8.76,-3.12 16.73,-7.91 24.91,-12.25 z"
           inkscape:connector-curvature="0"
           style="opacity:1;fill:#fe0000;stroke:#fe0000;stroke-width:0.09375" />
        <path
           id="path15743"
           transform="scale(0.8,0.8)"
           d="m 1243.8125,1042.8633 c -10.7625,6.475 -19.8371,15.2742 -30.2871,22.1367 -11.3,5.3125 -22.5379,11.0629 -34.7754,13.9004 -13.5375,4.65 -27.9383,5.2996 -41.8633,8.1621 11.3625,5.9 23.2141,10.85 34.8516,16.1875 10.3375,4.8625 21.2,8.8633 30.5625,15.5508 18.25,12.775 32.7988,31.2859 39.6738,52.5859 4.4125,13.1625 4.2137,27.3016 3.2012,40.9766 -1.2875,15.0875 -7.6379,29.2359 -16.1504,41.5859 -3.25,4.0375 -8.1254,6.1633 -12.3379,8.9883 -7.2,4.7375 -15.6121,6.9133 -23.5371,10.0508 8.7375,7.1875 19.0629,12.3746 26.9629,20.5996 8.5125,8.2125 12.1,19.9879 14.375,31.2754 2.05,11.0875 3.7246,22.6246 1.2246,33.7871 -1.8875,8.525 -6.9512,15.7875 -11.3262,23.1875 -3.8875,6.4 -8.575,12.75 -15.4375,16.1875 -13.5,6.75 -27.3992,13.0742 -42.1992,16.3867 -12.1,2.75 -24.5242,3.4887 -36.8242,4.8887 -16.6875,1.5375 -33.0625,5.8359 -49.875,6.1484 -14.75,0.4375 -29.2891,-2.525 -43.9141,-3.9375 7.175,6.25 13.7008,13.5254 17.5508,22.3379 3.6,8.275 5.6492,17.2125 6.5117,26.1875 0.6625,8.8625 -4.5113,16.5621 -8.6113,23.9746 -5.0125,9.175 -10.8637,18.1125 -18.8887,24.9375 -13.425,11.6875 -30.1734,18.3508 -45.64842,26.8008 -4.975,2.75 -9.83828,5.7871 -15.23828,7.6621 1.475,10.125 -3.625,19.3637 -5.375,29.0762 -5.4875,28.4375 -10.38711,57.0117 -17.09961,85.1992 -5.69987,24.0342 -10.70337,48.2184 -15.33203,72.4766 l -100.63281,0 c -112.19416,0 -202.51563,90.3214 -202.51563,202.5156 l 0,987.2676 c 0,112.1941 90.32147,202.5175 202.51563,202.5175 l 678.25975,0 c 112.1942,0 202.5156,-90.3234 202.5156,-202.5175 l 0,-987.2676 c 0,-112.1942 -90.3214,-202.5156 -202.5156,-202.5156 l -41.0332,0 c -0.5152,-0.6373 -1.0094,-1.2944 -1.4629,-1.9883 -21.125,-32.0375 -41.7,-64.6387 -57.625,-99.6387 0.1875,-0.7 0.5762,-2.1117 0.7637,-2.8242 -2.9125,-7.4125 -5.45,-14.9504 -8.25,-22.4004 -2.8125,-6.975 -2.7129,-14.6 -3.6504,-21.9375 -2.3,-21.7 -4.7625,-43.3754 -6.25,-65.1504 -1.375,-12.0875 0.2379,-24.2242 0.4004,-36.3242 0.7625,-9.2375 0.011,-18.7012 2.5488,-27.7012 1.4875,-5.625 2.5633,-11.3746 4.5508,-16.8496 9.1875,-22.45 19.3367,-44.4988 29.9492,-66.2988 6.775,-11.1 12.325,-23.0258 20.5625,-33.1758 6.5375,-8.575 13.2,-17.0629 19.8125,-25.5879 0.05,-0.625 0.1629,-1.8879 0.2129,-2.5254 -5.175,-8.3 -9.9863,-16.8246 -13.7988,-25.8496 -5.9125,-13.7375 -15.375,-25.65 -20.625,-39.6875 -5.5625,-13.4375 -11.4758,-26.7254 -17.3633,-40.0254 -5.525,-11.2875 -8.5125,-23.5492 -12.375,-35.4492 -3.1625,-12.65 -7.1,-25.175 -8.5,-38.1875 -2.5375,-15.9625 -4.4621,-32.0117 -6.1621,-48.0742 -8.2625,-6.65 -18.0496,-11.9258 -23.9746,-20.9883 -1.4375,-2 -2.8504,-3.9996 -4.2754,-5.9746 -15.25,-0.175 -30.4008,-2.0496 -45.6133,-2.7246 -14.575,-0.3875 -28.7879,-3.9516 -43.2129,-5.7266 -11.7375,-1.15 -21.6492,-8.1234 -32.4492,-12.2109 z"
           style="opacity:1;fill:#3ab54b;stroke:#3ab54b;stroke-width:0.1171875"
           inkscape:connector-curvature="0" />
        <path
           id="path15745"
           d="m 1115.93,873.24 c 9.33,-0.09 18.48,2.13 27.73,3.17 20.87,2.68 41.74,5.41 62.59,8.25 -2.64,2.03 -6.16,1.99 -9.26,2.69 -27.67,4.72 -56.13,-1.95 -81.06,-14.11 z"
           inkscape:connector-curvature="0"
           style="opacity:1;fill:#b98456;stroke:#b98456;stroke-width:0.09375" />
        <path
           id="path15747"
           d="m 922.52,921.74 c 5.64,-1.89 11.64,-0.84 17.46,-0.83 7.32,0.5 14.87,0.07 21.94,2.39 5.47,1.75 10.32,4.88 15.41,7.45 2.7,1.45 5.73,3.08 6.87,6.14 2.86,6.89 7.16,13.26 8.36,20.75 0.99,6.66 3.72,13.55 1.45,20.24 -1.56,4.66 -2.66,9.5 -4.72,13.99 -2.18,4.99 -6.74,8.23 -10.62,11.82 -3.08,2.89 -7.4,4.36 -11.6,3.76 -10.76,-1.06 -21.36,-3.27 -32,-5.11 -9.47,-1.98 -19.05,-3.85 -28.12,-7.28 -4.61,-2.53 -9.07,-5.45 -13.03,-8.92 -4.79,-3.99 -5.83,-10.49 -7.6,-16.11 -4.62,-14.47 0.54,-32.8 14.34,-40.36 6.54,-4.45 14.68,-4.97 21.86,-7.93 z"
           inkscape:connector-curvature="0"
           style="opacity:1;fill:#fe0000;stroke:#fe0000;stroke-width:0.09375" />
        <path
           id="path15749"
           d="m 916.5,1039.64 c 9.79,-1.18 19.67,-0.03 29.51,-0.33 6.75,0.24 13.58,-0.5 20.28,0.34 2.6,2.56 4.14,5.95 5.84,9.13 5.37,9.63 6.21,20.83 8.55,31.41 1.91,7.41 0.65,15.14 -1.33,22.39 -2.2,3.51 -4.68,7.01 -7.83,9.74 -3.4,0.76 -6.96,-0.05 -10.41,0.34 -8.36,0.86 -16.71,3.23 -25.17,2.13 -15.7,-1.96 -31.41,-4.54 -46.5,-9.4 -3.33,-1.37 -5.67,-4.27 -8.21,-6.7 -4.35,-4.37 -8.31,-10.17 -7.42,-16.65 0.92,-8.62 2.17,-18.17 8.66,-24.55 6.3,-5.74 13.87,-9.88 21.64,-13.3 4.04,-1.73 7.97,-3.94 12.39,-4.55 z"
           inkscape:connector-curvature="0"
           style="opacity:1;fill:#fe0000;stroke:#fe0000;stroke-width:0.09375" />
        <path
           id="path15751"
           d="m 1177.73,1054.21 c 5.36,5.72 10.27,11.85 15.2,17.94 19.88,24.08 39.79,48.14 59.58,72.3 4.04,5.41 8.99,10.11 12.54,15.88 -3.22,-2.2 -6.01,-5.03 -9.48,-6.84 -13.45,-6 -25.71,-14.6 -36.48,-24.6 -6.18,-5.67 -10.15,-13.16 -15,-19.89 -11.08,-16.29 -22.17,-33.28 -26.53,-52.77 0.04,-0.5 0.13,-1.51 0.17,-2.02 z"
           inkscape:connector-curvature="0"
           style="opacity:1;fill:#ca855e;stroke:#ca855e;stroke-width:0.09375" />
        <path
           id="path15753"
           d="m 772.92,1149.09 c 5.05,-1.41 9.76,-3.9 14.96,-4.81 7.22,-1.41 14.63,-0.79 21.92,-0.31 0.95,13.01 0.28,26.14 2.09,39.09 2.15,6.44 5.79,12.31 8.79,18.4 -10.13,2.13 -20.36,4.01 -30.7,4.61 -7.24,0.23 -14.92,-0.7 -21.01,-4.94 -6.37,-4.34 -14.22,-7.98 -17.38,-15.5 -1.63,-5.71 -1.95,-11.78 -1.68,-17.68 1.17,-7.33 7.37,-12.09 13.21,-15.86 3.09,-1.5 6.56,-1.93 9.8,-3 z"
           inkscape:connector-curvature="0"
           style="opacity:1;fill:#fe0000;stroke:#fe0000;stroke-width:0.09375" />
        <path
           id="path15755"
           d="m 1498.19,1147.1 c 2.29,0.11 4.06,1.74 5.88,2.98 -6.45,17.09 -13.85,33.82 -20.44,50.85 -2.23,9.62 -3.52,19.43 -5.35,29.13 -2.03,11.63 -4.28,23.23 -6.1,34.89 -2.09,14.63 -0.21,29.39 -0.31,44.08 0.02,14.58 -0.02,29.16 -0.06,43.74 -1.44,0.28 -2.85,0.6 -4.26,0.9 -1.5,-10.17 -0.7,-20.48 -0.53,-30.71 0.91,-38.78 1.71,-77.88 9.95,-115.94 2.23,-9.35 3.87,-18.87 7.08,-27.94 2.95,-8.46 6.45,-16.71 10.38,-24.75 1.22,-2.42 1.88,-5.2 3.76,-7.23 z"
           inkscape:connector-curvature="0"
           style="opacity:1;fill:#ca855d;stroke:#ca855d;stroke-width:0.09375" />
        <rect
           rx="0"
           ry="136.01912"
           y="1687.0485"
           x="507.2309"
           height="499.73148"
           width="861.04932"
           id="rect16306"
           style="opacity:1;fill:#b4f3f8;fill-opacity:1;stroke:#55a0a2;stroke-width:6.61555386;stroke-linecap:round;stroke-linejoin:round;stroke-miterlimit:4;stroke-dasharray:none;stroke-opacity:1" />
        <g
           id="text4161"
           style="font-style:normal;font-weight:normal;font-size:37.4193573px;line-height:125%;font-family:sans-serif;letter-spacing:0px;word-spacing:0px;fill:#000000;fill-opacity:1;stroke:none;stroke-width:1px;stroke-linecap:butt;stroke-linejoin:miter;stroke-opacity:1"
           transform="scale(0.65655665,1.5230978)">
          <path
             id="path4526"
             style="font-style:normal;font-variant:normal;font-weight:normal;font-stretch:normal;font-size:168.38711548px;font-family:'Heiti TC';-inkscape-font-specification:'Heiti TC'"
             d="m 953.35841,1276.3633 -14.48129,0 0,-58.4303 -59.10387,0 0,58.4303 -14.64968,0 0,-123.2593 14.64968,0 0,50.6845 59.10387,0 0,-50.6845 14.48129,0 0,123.2593 z" />
          <path
             id="path4528"
             style="font-style:normal;font-variant:normal;font-weight:normal;font-stretch:normal;font-size:168.38711548px;font-family:'Heiti TC';-inkscape-font-specification:'Heiti TC'"
             d="m 1069.6534,1276.3633 -13.6394,0 0,-13.4709 q -14.9864,16.5019 -34.5193,16.5019 -19.5329,0 -33.50906,-14.3129 -13.80774,-14.4813 -13.80774,-34.351 0,-20.038 13.97613,-34.1826 13.97617,-14.3129 34.01417,-14.3129 20.2065,0 33.8458,16.3336 l 0,-13.9762 13.6394,0 0,91.771 z m -47.1484,-9.9348 q 13.9761,0 24.0794,-10.1032 10.1032,-10.1033 10.1032,-25.0897 0,-15.1549 -9.9349,-25.2581 -9.9348,-10.2716 -24.4161,-10.2716 -14.3129,0 -24.24773,10.6084 -9.93484,10.44 -9.93484,24.7529 0,14.3129 10.10323,24.9213 10.10324,10.44 24.24774,10.44 z" />
          <path
             id="path4530"
             style="font-style:normal;font-variant:normal;font-weight:normal;font-stretch:normal;font-size:168.38711548px;font-family:'Heiti TC';-inkscape-font-specification:'Heiti TC'"
             d="m 1173.4877,1276.3633 -13.8077,0 0,-43.7806 q 0,-15.1549 -1.5155,-20.5433 -1.3471,-5.5567 -4.2097,-9.2612 -2.6942,-3.8729 -7.0722,-5.7252 -4.2097,-1.8523 -10.44,-1.8523 -6.062,0 -11.9555,3.031 -5.8936,3.031 -10.1033,8.4194 -4.2096,5.3883 -5.8935,11.4503 -1.5155,6.0619 -1.5155,24.2477 l 0,34.0142 -13.9761,0 0,-91.771 13.9761,0 0,13.8078 q 13.6394,-16.1652 32.3303,-16.1652 9.9349,0 18.0175,5.22 8.0825,5.0516 12.1238,14.1445 4.0413,8.9246 4.0413,27.6155 l 0,47.1484 z" />
          <path
             id="path4532"
             style="font-style:normal;font-variant:normal;font-weight:normal;font-stretch:normal;font-size:168.38711548px;font-family:'Heiti TC';-inkscape-font-specification:'Heiti TC'"
             d="m 1287.2122,1276.3633 -13.6394,0 0,-13.4709 q -14.9864,16.5019 -34.6877,16.5019 -19.5329,0 -33.3407,-14.3129 -13.8077,-14.3129 -13.8077,-34.351 0,-20.038 13.9761,-34.1826 13.9761,-14.3129 34.0142,-14.3129 20.2065,0 33.8458,16.3336 l 0,-48.4955 13.6394,0 0,126.2903 z m -47.1484,-9.9348 q 13.3026,0 23.7426,-9.9349 10.44,-9.9348 10.44,-25.0896 0,-15.3233 -9.7665,-25.4265 -9.598,-10.2716 -24.4161,-10.2716 -14.6497,0 -24.5845,10.6084 -9.7665,10.44 -9.7665,24.7529 0,14.1445 10.1032,24.7529 10.1033,10.6084 24.2478,10.6084 z" />
          <path
             id="path4534"
             style="font-style:normal;font-variant:normal;font-weight:normal;font-stretch:normal;font-size:168.38711548px;font-family:'Heiti TC';-inkscape-font-specification:'Heiti TC'"
             d="m 1402.481,1180.2143 q -6.7354,-9.0929 -11.4503,-12.1239 -4.7148,-3.1993 -11.1135,-3.1993 -6.2304,0 -10.6084,4.0412 -4.2097,4.0413 -4.2097,10.44 0,6.2304 4.0413,10.9452 4.0413,4.7148 18.5226,15.4916 14.6497,10.6084 21.3851,20.0381 6.7355,9.4297 6.7355,19.8697 0,13.6393 -10.6084,23.7426 -10.44,9.9348 -24.4161,9.9348 -24.5845,0 -38.5606,-27.4471 l 12.2922,-7.0723 q 10.9452,20.3749 24.5845,20.3749 8.7562,0 14.9865,-5.5568 6.2303,-5.5568 6.2303,-12.9658 0,-7.409 -5.22,-13.9761 -5.22,-6.7355 -18.0174,-16.3336 -12.7974,-9.7664 -17.6807,-14.8181 -4.7148,-5.0516 -6.9038,-10.7767 -2.1891,-5.7252 -2.1891,-11.4504 0,-12.2922 8.4194,-20.7116 8.5877,-8.5877 22.0587,-8.5877 10.44,0 18.1858,5.3884 7.7458,5.22 15.1548,15.66 l -11.6187,9.0929 z" />
          <path
             id="path4536"
             style="font-style:normal;font-variant:normal;font-weight:normal;font-stretch:normal;font-size:168.38711548px;font-family:'Heiti TC';-inkscape-font-specification:'Heiti TC'"
             d="m 1528.4425,1276.3633 -13.6394,0 0,-13.4709 q -14.9864,16.5019 -34.5193,16.5019 -19.5329,0 -33.509,-14.3129 -13.8078,-14.4813 -13.8078,-34.351 0,-20.038 13.9761,-34.1826 13.9762,-14.3129 34.0142,-14.3129 20.2065,0 33.8458,16.3336 l 0,-13.9762 13.6394,0 0,91.771 z m -47.1484,-9.9348 q 13.9761,0 24.0794,-10.1032 10.1032,-10.1033 10.1032,-25.0897 0,-15.1549 -9.9348,-25.2581 -9.9349,-10.2716 -24.4162,-10.2716 -14.3129,0 -24.2477,10.6084 -9.9349,10.44 -9.9349,24.7529 0,14.3129 10.1033,24.9213 10.1032,10.44 24.2477,10.44 z" />
          <path
             id="path4538"
             style="font-style:normal;font-variant:normal;font-weight:normal;font-stretch:normal;font-size:168.38711548px;font-family:'Heiti TC';-inkscape-font-specification:'Heiti TC'"
             d="m 1632.2768,1276.3633 -13.8077,0 0,-43.7806 q 0,-15.1549 -1.5155,-20.5433 -1.3471,-5.5567 -4.2097,-9.2612 -2.6942,-3.8729 -7.0722,-5.7252 -4.2097,-1.8523 -10.44,-1.8523 -6.062,0 -11.9555,3.031 -5.8936,3.031 -10.1033,8.4194 -4.2096,5.3883 -5.8935,11.4503 -1.5155,6.0619 -1.5155,24.2477 l 0,34.0142 -13.9761,0 0,-91.771 13.9761,0 0,13.8078 q 13.6394,-16.1652 32.3303,-16.1652 9.9349,0 18.0175,5.22 8.0825,5.0516 12.1238,14.1445 4.0413,8.9246 4.0413,27.6155 l 0,47.1484 z" />
          <path
             id="path4540"
             style="font-style:normal;font-variant:normal;font-weight:normal;font-stretch:normal;font-size:168.38711548px;font-family:'Heiti TC';-inkscape-font-specification:'Heiti TC'"
             d="m 1659.6187,1150.073 q 4.5464,0 7.5774,3.1993 3.1994,3.031 3.1994,7.5775 0,4.378 -3.1994,7.5774 -3.031,3.031 -7.5774,3.031 -4.3781,0 -7.5774,-3.1994 -3.031,-3.1994 -3.031,-7.409 0,-4.3781 3.031,-7.5775 3.1993,-3.1993 7.5774,-3.1993 z m 7.0722,126.2903 -13.9761,0 0,-91.771 13.9761,0 0,91.771 z" />
          <path
             id="path4542"
             style="font-style:normal;font-variant:normal;font-weight:normal;font-stretch:normal;font-size:168.38711548px;font-family:'Heiti TC';-inkscape-font-specification:'Heiti TC'"
             d="m 1730.2097,1196.7162 -18.1858,0 0,64.3239 q 0,3.5361 1.0104,4.3781 1.0103,0.6735 5.0516,0.6735 l 8.0826,0 0,11.9555 q -8.0826,1.3471 -12.2923,1.3471 -8.0826,0 -11.9555,-3.8729 -3.8729,-4.0413 -3.8729,-12.629 l 0,-66.1762 -15.8284,0 0,-12.1239 15.8284,0 0,-34.5193 13.9761,0 0,34.5193 18.1858,0 0,12.1239 z" />
          <path
             id="path4544"
             style="font-style:normal;font-variant:normal;font-weight:normal;font-stretch:normal;font-size:168.38711548px;font-family:'Heiti TC';-inkscape-font-specification:'Heiti TC'"
             d="m 1750.3899,1150.073 q 4.5464,0 7.5774,3.1993 3.1993,3.031 3.1993,7.5775 0,4.378 -3.1993,7.5774 -3.031,3.031 -7.5774,3.031 -4.3781,0 -7.5775,-3.1994 -3.0309,-3.1994 -3.0309,-7.409 0,-4.3781 3.0309,-7.5775 3.1994,-3.1993 7.5775,-3.1993 z m 7.0722,126.2903 -13.9761,0 0,-91.771 13.9761,0 0,91.771 z" />
          <path
             id="path4546"
             style="font-style:normal;font-variant:normal;font-weight:normal;font-stretch:normal;font-size:168.38711548px;font-family:'Heiti TC';-inkscape-font-specification:'Heiti TC'"
             d="m 1838.4932,1184.5923 -46.8116,79.142 46.138,0 0,12.629 -70.3858,0 46.8116,-79.3103 -42.7703,0 0,-12.4607 67.0181,0 z" />
          <path
             id="path4548"
             style="font-style:normal;font-variant:normal;font-weight:normal;font-stretch:normal;font-size:168.38711548px;font-family:'Heiti TC';-inkscape-font-specification:'Heiti TC'"
             d="m 1940.5068,1232.9195 -80.489,0 q 0.8419,15.1548 10.1032,24.4161 9.4297,9.0929 22.3955,9.0929 22.0587,0 33.6774,-21.722 l 11.7871,6.062 q -7.9142,14.6497 -18.691,21.7219 -10.7767,6.9039 -25.7632,6.9039 -20.7116,0 -34.1826,-14.1445 -13.4709,-14.3129 -13.4709,-34.351 0,-20.0381 13.4709,-34.351 13.6394,-14.3129 33.6775,-14.3129 20.038,0 33.509,13.6394 13.471,13.471 13.9761,37.0452 z m -15.4916,-12.2923 q -2.5258,-11.7871 -11.4503,-18.3542 -8.9245,-6.5671 -20.5432,-6.5671 -23.5742,0 -31.32,24.9213 l 63.3135,0 z" />
          <path
             id="path4550"
             style="font-style:normal;font-variant:normal;font-weight:normal;font-stretch:normal;font-size:168.38711548px;font-family:'Heiti TC';-inkscape-font-specification:'Heiti TC'"
             d="m 1998.3294,1185.9394 -7.2407,11.7871 q -2.8626,-1.5154 -5.5567,-1.5154 -5.22,0 -9.4297,5.22 -4.2097,5.0516 -6.3987,13.4709 -2.0207,8.251 -2.0207,29.9729 l 0,31.4884 -14.1445,0 0,-91.771 14.1445,0 0,9.9349 q 4.2097,-6.2303 8.4194,-9.2613 4.378,-3.031 9.7664,-3.031 5.5568,0 12.4607,3.7045 z" />
        </g>
        <g
           id="text4165"
           style="font-style:normal;font-weight:normal;font-size:26.9755764px;line-height:125%;font-family:sans-serif;letter-spacing:0px;word-spacing:0px;fill:#000000;fill-opacity:1;stroke:none;stroke-width:1px;stroke-linecap:butt;stroke-linejoin:miter;stroke-opacity:1"
           transform="scale(0.70489113,1.4186588)">
          <path
             id="path4501"
             style="font-style:normal;font-variant:normal;font-weight:normal;font-stretch:normal;font-size:121.39009857px;font-family:'Heiti TC';-inkscape-font-specification:'Heiti TC'"
             d="m 1003.6401,1483.7801 -11.04652,0 -13.71708,-29.7406 -36.65981,0 -13.5957,29.7406 -11.53205,0 42.00097,-92.3779 3.15614,0 41.39405,92.3779 z m -29.49782,-40.3015 -13.4743,-29.9834 -13.59569,29.9834 27.06999,0 z" />
          <path
             id="path4503"
             style="font-style:normal;font-variant:normal;font-weight:normal;font-stretch:normal;font-size:121.39009857px;font-family:'Heiti TC';-inkscape-font-specification:'Heiti TC'"
             d="m 1022.484,1483.7801 -9.954,0 0,-91.0426 9.954,0 0,91.0426 z" />
          <path
             id="path4505"
             style="font-style:normal;font-variant:normal;font-weight:normal;font-stretch:normal;font-size:121.39009857px;font-family:'Heiti TC';-inkscape-font-specification:'Heiti TC'"
             d="m 1102.8651,1470.3058 q -5.2198,7.6475 -13.7171,11.6534 -8.3759,4.0059 -18.2085,4.0059 -15.2951,0 -25.6133,-10.0754 -10.1968,-10.0754 -10.1968,-24.6422 0,-14.5668 10.3182,-24.8849 10.3181,-10.4396 26.7058,-10.4396 9.7112,0 17.8444,4.2487 8.2545,4.2486 12.8673,11.8962 l -7.8904,4.977 q -8.8614,-11.5321 -23.1855,-11.5321 -11.2892,0 -18.9368,7.2834 -7.6476,7.162 -7.6476,17.8444 0,10.6823 7.5262,18.3299 7.5262,7.6476 19.0582,7.6476 13.8385,0 23.3069,-11.6535 l 7.769,5.3412 z" />
          <path
             id="path4507"
             style="font-style:normal;font-variant:normal;font-weight:normal;font-stretch:normal;font-size:121.39009857px;font-family:'Heiti TC';-inkscape-font-specification:'Heiti TC'"
             d="m 1148.3181,1415.923 q 14.324,0 24.278,10.3182 10.0754,10.3181 10.0754,24.7635 0,14.4455 -9.954,24.7636 -9.8326,10.1968 -24.3994,10.1968 -14.5668,0 -24.5208,-10.1968 -9.954,-10.3181 -9.954,-24.7636 0,-14.4454 9.954,-24.7635 10.0754,-10.3182 24.5208,-10.3182 z m 0,60.4523 q 10.0754,0 17.116,-7.2834 7.162,-7.4048 7.162,-17.723 0,-10.4395 -7.2834,-17.9657 -7.162,-7.6476 -17.116,-7.6476 -9.8326,0 -16.9946,7.6476 -7.162,7.5262 -7.162,17.9657 0,10.4396 6.9192,17.723 6.9193,7.2834 17.3588,7.2834 z" />
          <path
             id="path4509"
             style="font-style:normal;font-variant:normal;font-weight:normal;font-stretch:normal;font-size:121.39009857px;font-family:'Heiti TC';-inkscape-font-specification:'Heiti TC'"
             d="m 1254.5648,1483.7801 -10.0754,0 0,-31.5615 q 0,-9.2256 -0.6069,-12.9887 -0.4856,-3.7631 -2.4278,-7.0406 -1.9423,-3.3989 -5.3412,-5.0984 -3.2775,-1.8209 -8.0118,-1.8209 -4.6128,0 -8.8614,2.1851 -4.2487,2.185 -7.2834,6.0695 -3.0348,3.8845 -4.2487,8.2545 -1.0925,4.37 -1.0925,17.4802 l 0,24.5208 -10.0754,0 0,-91.0426 10.0754,0 0,34.839 q 9.8326,-11.6535 23.3069,-11.6535 7.162,0 12.9887,3.7631 5.8268,3.6417 8.7401,10.1968 2.9134,6.4336 2.9134,19.9079 l 0,33.9893 z" />
          <path
             id="path4511"
             style="font-style:normal;font-variant:normal;font-weight:normal;font-stretch:normal;font-size:121.39009857px;font-family:'Heiti TC';-inkscape-font-specification:'Heiti TC'"
             d="m 1301.9525,1415.923 q 14.324,0 24.278,10.3182 10.0754,10.3181 10.0754,24.7635 0,14.4455 -9.954,24.7636 -9.8326,10.1968 -24.3994,10.1968 -14.5669,0 -24.5208,-10.1968 -9.954,-10.3181 -9.954,-24.7636 0,-14.4454 9.954,-24.7635 10.0753,-10.3182 24.5208,-10.3182 z m 0,60.4523 q 10.0753,0 17.116,-7.2834 7.162,-7.4048 7.162,-17.723 0,-10.4395 -7.2834,-17.9657 -7.162,-7.6476 -17.116,-7.6476 -9.8326,0 -16.9946,7.6476 -7.1621,7.5262 -7.1621,17.9657 0,10.4396 6.9193,17.723 6.9192,7.2834 17.3588,7.2834 z" />
          <path
             id="path4513"
             style="font-style:normal;font-variant:normal;font-weight:normal;font-stretch:normal;font-size:121.39009857px;font-family:'Heiti TC';-inkscape-font-specification:'Heiti TC'"
             d="m 1358.9148,1483.7801 -9.954,0 0,-91.0426 9.954,0 0,91.0426 z" />
          <path
             id="path4515"
             style="font-style:normal;font-variant:normal;font-weight:normal;font-stretch:normal;font-size:121.39009857px;font-family:'Heiti TC';-inkscape-font-specification:'Heiti TC'"
             d="m 1440.5098,1414.4663 q -4.8556,-6.555 -8.2546,-8.7401 -3.3989,-2.3064 -8.0117,-2.3064 -4.4914,0 -7.6476,2.9134 -3.0347,2.9134 -3.0347,7.5262 0,4.4914 2.9133,7.8903 2.9134,3.399 13.3529,11.1679 10.561,7.6476 15.4166,14.4454 4.8556,6.7979 4.8556,14.3241 0,9.8326 -7.6476,17.116 -7.5262,7.162 -17.6015,7.162 -17.723,0 -27.7984,-19.7866 l 8.8615,-5.0984 q 7.8904,14.6882 17.723,14.6882 6.3122,0 10.8037,-4.0058 4.4914,-4.0059 4.4914,-9.3471 0,-5.3412 -3.7631,-10.0754 -3.7631,-4.8556 -12.9887,-11.7748 -9.2257,-7.0406 -12.746,-10.6823 -3.3989,-3.6417 -4.977,-7.769 -1.5781,-4.1273 -1.5781,-8.2545 0,-8.8615 6.0695,-14.931 6.1909,-6.1909 15.9022,-6.1909 7.5261,0 13.1101,3.8845 5.5839,3.7631 10.9251,11.2893 l -8.3759,6.555 z" />
          <path
             id="path4517"
             style="font-style:normal;font-variant:normal;font-weight:normal;font-stretch:normal;font-size:121.39009857px;font-family:'Heiti TC';-inkscape-font-specification:'Heiti TC'"
             d="m 1475.4758,1427.6978 q 9.8326,-11.7748 24.2781,-11.7748 14.4454,0 24.5208,10.3182 10.0753,10.1967 10.0753,24.6422 0,14.4454 -9.954,24.7635 -9.9539,10.3182 -24.0352,10.3182 -14.0813,0 -24.885,-11.8962 l 0,33.1395 -9.954,0 0,-89.5859 9.954,0 0,10.0753 z m 24.2781,48.9203 q 9.9539,0 17.2373,-7.4048 7.4048,-7.5262 7.4048,-18.0872 0,-10.5609 -7.2834,-17.9657 -7.162,-7.5262 -17.6015,-7.5262 -10.4396,0 -17.6016,7.4048 -7.0406,7.2834 -7.0406,18.0871 0,10.8038 7.2834,18.2085 7.2834,7.2835 17.6016,7.2835 z" />
          <path
             id="path4519"
             style="font-style:normal;font-variant:normal;font-weight:normal;font-stretch:normal;font-size:121.39009857px;font-family:'Heiti TC';-inkscape-font-specification:'Heiti TC'"
             d="m 1576.3017,1418.5936 -5.2198,8.4973 q -2.0636,-1.0925 -4.0059,-1.0925 -3.7631,0 -6.7978,3.7631 -3.0348,3.6417 -4.6128,9.7112 -1.4567,5.9481 -1.4567,21.6074 l 0,22.7 -10.1968,0 0,-66.1576 10.1968,0 0,7.162 q 3.0347,-4.4915 6.0695,-6.6765 3.1561,-2.185 7.0406,-2.185 4.0059,0 8.9829,2.6706 z" />
          <path
             id="path4521"
             style="font-style:normal;font-variant:normal;font-weight:normal;font-stretch:normal;font-size:121.39009857px;font-family:'Heiti TC';-inkscape-font-specification:'Heiti TC'"
             d="m 1650.8086,1483.7801 -9.8326,0 0,-9.7112 q -10.8037,11.8962 -24.8849,11.8962 -14.0813,0 -24.1567,-10.3182 -9.954,-10.4395 -9.954,-24.7635 0,-14.4455 10.0754,-24.6422 10.0754,-10.3182 24.5208,-10.3182 14.5668,0 24.3994,11.7748 l 0,-10.0753 9.8326,0 0,66.1576 z m -33.9892,-7.162 q 10.0754,0 17.3588,-7.2835 7.2834,-7.2834 7.2834,-18.0871 0,-10.9251 -7.162,-18.2085 -7.162,-7.4048 -17.6016,-7.4048 -10.3182,0 -17.4802,7.6476 -7.162,7.5262 -7.162,17.8443 0,10.3182 7.2834,17.9658 7.2834,7.5262 17.4802,7.5262 z" />
          <path
             id="path4523"
             style="font-style:normal;font-variant:normal;font-weight:normal;font-stretch:normal;font-size:121.39009857px;font-family:'Heiti TC';-inkscape-font-specification:'Heiti TC'"
             d="m 1724.0846,1417.6225 -39.209,89.5859 -10.4395,0 12.746,-29.1337 -26.8273,-60.4522 10.4396,0 21.7288,48.4346 21.0005,-48.4346 10.5609,0 z" />
        </g>
      </g>
    </g>
    <g
       transform="matrix(1.3947426,0,0,1.5129578,-619.01192,-103.63916)"
       id="layer1"
       inkscape:label="Layer 1">
      <g
         id="g39421">
        <g
           id="g39038"
           transform="matrix(4.5036669,0,0,4.1533507,5892.0324,141.81933)">
          <g
             transform="translate(10.245026,3.2401685)"
             id="g39865" />
        </g>
      </g>
      <g
         inkscape:label="Layer 1"
         id="layer1-5"
         transform="matrix(3.7795279,0,0,3.7795277,-7.1550692,-927.76746)" />
    </g>
    <path
       style="fill:none;fill-rule:evenodd;stroke:#000000;stroke-width:11.19999981;stroke-linecap:butt;stroke-linejoin:miter;stroke-miterlimit:4;stroke-dasharray:11.2, 22.4;stroke-dashoffset:0;stroke-opacity:1"
       d="m 524.47337,276.72999 -1489.7651,-535.88671 0,0"
       id="path4312"
       inkscape:connector-curvature="0" />
    <path
       style="fill:none;fill-rule:evenodd;stroke:#000000;stroke-width:11.19999981;stroke-linecap:butt;stroke-linejoin:miter;stroke-miterlimit:4;stroke-dasharray:11.2, 22.4;stroke-dashoffset:0;stroke-opacity:1"
       d="M 524.47334,335.67751 -295.43332,158.83492"
       id="path4316"
       inkscape:connector-curvature="0"
       sodipodi:nodetypes="cc" />
    <path
       style="fill:none;fill-rule:evenodd;stroke:#000000;stroke-width:10.70006275;stroke-linecap:butt;stroke-linejoin:miter;stroke-miterlimit:4;stroke-dasharray:10.70006274, 21.40012548;stroke-dashoffset:0;stroke-opacity:1"
       d="m 513.73812,373.19674 -707.33547,-5.37312 0,0"
       id="path4318"
       inkscape:connector-curvature="0" />
    <path
       style="fill:none;fill-rule:evenodd;stroke:#000000;stroke-width:11.19999981;stroke-linecap:butt;stroke-linejoin:miter;stroke-miterlimit:4;stroke-dasharray:11.2, 22.4;stroke-dashoffset:0;stroke-opacity:1"
       d="M 540.54997,421.41938 -332.94539,657.20957"
       id="path4320"
       inkscape:connector-curvature="0"
       sodipodi:nodetypes="cc" />
    <path
       style="fill:none;fill-rule:evenodd;stroke:#000000;stroke-width:11.19999981;stroke-linecap:butt;stroke-linejoin:miter;stroke-miterlimit:4;stroke-dasharray:11.2, 22.4;stroke-dashoffset:0;stroke-opacity:1"
       d="m 540.54999,458.93151 -1682.68439,632.34629 0,0"
       id="path4322"
       inkscape:connector-curvature="0"
       sodipodi:nodetypes="ccc" />
    <g
       id="g4409">
      <ellipse
         ry="400.40512"
         rx="445.95547"
         cy="365.15131"
         cx="-643.7597"
         id="path4324"
         style="opacity:1;fill:none;fill-opacity:1;stroke:#ff0000;stroke-width:56.62100601;stroke-linecap:round;stroke-linejoin:bevel;stroke-miterlimit:4;stroke-dasharray:none;stroke-dashoffset:0;stroke-opacity:1" />
      <g
         id="g4381">
        <path
           transform="matrix(6.2814561,0,0,6.2838443,7663.2103,131.28821)"
           style="fill:#f0ce5f;fill-opacity:1;fill-rule:evenodd;stroke:#b08c3e;stroke-width:1px;stroke-linecap:round;stroke-linejoin:round;stroke-opacity:1"
           d="m -1290.3115,30.66176 21.2061,-2.718735 -1.6312,2.718735 -18.4874,5.437469 z"
           id="path38988"
           inkscape:connector-curvature="0" />
        <path
           transform="matrix(6.2814561,0,0,6.2838443,7663.2103,131.28821)"
           inkscape:connector-curvature="0"
           id="path38992"
           d="m -1292.5904,49.435247 18.2032,2.14655 -1.4002,-2.14655 -15.8695,-4.293099 z"
           style="fill:#f0ce5f;fill-opacity:1;fill-rule:evenodd;stroke:#b08c3e;stroke-width:0.82324713px;stroke-linecap:round;stroke-linejoin:round;stroke-opacity:1" />
        <path
           transform="matrix(6.2814561,0,0,6.2838443,7663.2103,131.28821)"
           style="fill:#f0ce5f;fill-opacity:1;fill-rule:evenodd;stroke:#b08c3e;stroke-width:0.82908094px;stroke-linecap:round;stroke-linejoin:round;stroke-opacity:1"
           d="m -1320.2622,69.444389 6.5729,16.425174 -2.5261,-0.747481 -8.1997,-13.688335 z"
           id="path39000"
           inkscape:connector-curvature="0" />
        <path
           transform="matrix(6.2814561,0,0,6.2838443,7663.2103,131.28821)"
           inkscape:connector-curvature="0"
           id="path39012"
           d="m -1327.112,14.201589 1.2045,-20.8339557 2.3744,2.0731904 1.9652,18.7381473 z"
           style="fill:#f0ce5f;fill-opacity:1;fill-rule:evenodd;stroke:#b08c3e;stroke-width:0.98814052px;stroke-linecap:round;stroke-linejoin:round;stroke-opacity:1" />
        <path
           transform="matrix(6.2814561,0,0,6.2838443,7663.2103,131.28821)"
           inkscape:connector-curvature="0"
           id="path39018"
           d="m -1345.7303,62.784779 -5.0156,12.497107 1.9276,-0.568722 6.257,-10.41478 z"
           style="fill:#f0ce5f;fill-opacity:1;fill-rule:evenodd;stroke:#b08c3e;stroke-width:1;stroke-linecap:round;stroke-linejoin:round;stroke-miterlimit:4;stroke-dasharray:none;stroke-opacity:1" />
        <path
           transform="matrix(6.2814561,0,0,6.2838443,7663.2103,131.28821)"
           style="fill:#f0ce5f;fill-opacity:1;fill-rule:evenodd;stroke:#b08c3e;stroke-width:0.91354507;stroke-linecap:round;stroke-linejoin:round;stroke-miterlimit:4;stroke-dasharray:none;stroke-opacity:1"
           d="m -1347.5435,23.82613 -13.2682,-4.269272 1.7423,-1.225456 12.4494,1.82278 z"
           id="path39022"
           inkscape:connector-curvature="0" />
        <ellipse
           transform="matrix(6.2814561,0,0,6.2838443,7663.2103,131.28821)"
           style="opacity:1;fill:#f0d628;fill-opacity:1;stroke:#b08c3e;stroke-width:1.60000002;stroke-linecap:round;stroke-linejoin:round;stroke-miterlimit:4;stroke-dasharray:none;stroke-opacity:1"
           id="path38986"
           cx="-1321.5769"
           cy="40.99295"
           rx="38.334156"
           ry="35.887295" />
        <ellipse
           transform="matrix(6.2814561,0,0,6.2838443,7663.2103,131.28821)"
           ry="35.887295"
           rx="38.334156"
           cy="40.99295"
           cx="-1321.5769"
           id="ellipse39855"
           style="opacity:1;fill:url(#radialGradient39863);fill-opacity:1;stroke:#b08c3e;stroke-width:1.60000002;stroke-linecap:round;stroke-linejoin:round;stroke-miterlimit:4;stroke-dasharray:none;stroke-opacity:1" />
        <ellipse
           transform="matrix(6.2814561,0,0,6.2838443,7663.2103,131.28821)"
           style="opacity:1;fill:#f4d78a;fill-opacity:1;stroke:#b08c3e;stroke-width:0.84911048;stroke-linecap:round;stroke-linejoin:round;stroke-miterlimit:4;stroke-dasharray:none;stroke-opacity:1"
           id="path38990"
           cx="-1271.5522"
           cy="29.302393"
           rx="2.522306"
           ry="7.416028" />
        <ellipse
           ry="5.8552504"
           rx="2.1651309"
           cy="-50.508522"
           cx="-1276.4877"
           id="ellipse38994"
           style="opacity:1;fill:#f4d78a;fill-opacity:1;stroke:#b08c3e;stroke-width:0.69902778;stroke-linecap:round;stroke-linejoin:round;stroke-miterlimit:4;stroke-dasharray:none;stroke-opacity:1"
           transform="matrix(6.2814561,0,0,-6.2838443,7663.2103,131.28821)" />
        <path
           transform="matrix(6.2814561,0,0,6.2838443,7663.2103,131.28821)"
           inkscape:connector-curvature="0"
           id="path38996"
           d="m -1300.8219,62.796283 18.7543,10.265172 -2.918,1.240618 -18.1523,-6.467497 z"
           style="fill:#f0ce5f;fill-opacity:1;fill-rule:evenodd;stroke:#b08c3e;stroke-width:1px;stroke-linecap:round;stroke-linejoin:round;stroke-opacity:1" />
        <ellipse
           ry="7.416028"
           rx="2.522306"
           cy="814.04785"
           cx="-996.71686"
           id="ellipse38998"
           style="opacity:1;fill:#f4d78a;fill-opacity:1;stroke:#b08c3e;stroke-width:0.84911048;stroke-linecap:round;stroke-linejoin:round;stroke-miterlimit:4;stroke-dasharray:none;stroke-opacity:1"
           transform="matrix(5.0818047,3.693551,-3.6921473,5.0837368,7663.2103,131.28821)" />
        <ellipse
           transform="matrix(1.5699114,6.084423,-6.0860954,1.5549824,7663.2103,131.28821)"
           style="opacity:1;fill:#f4d78a;fill-opacity:1;stroke:#b08c3e;stroke-width:0.70398247;stroke-linecap:round;stroke-linejoin:round;stroke-miterlimit:4;stroke-dasharray:none;stroke-opacity:1"
           id="ellipse39002"
           cx="-243.90749"
           cy="1294.5938"
           rx="2.0863531"
           ry="6.1627784" />
        <path
           transform="matrix(6.2814561,0,0,6.2838443,7663.2103,131.28821)"
           inkscape:connector-curvature="0"
           id="path39004"
           d="m -1315.3961,54.231806 4.8026,11.336271 -1.8458,-0.515894 -5.9912,-9.447368 z"
           style="fill:#f0ce5f;fill-opacity:1;fill-rule:evenodd;stroke:#b08c3e;stroke-width:1;stroke-linecap:round;stroke-linejoin:round;stroke-miterlimit:4;stroke-dasharray:none;stroke-opacity:1" />
        <ellipse
           ry="6.4209118"
           rx="3.4935224"
           cy="1355.115"
           cx="-492.09665"
           id="ellipse39006"
           style="opacity:1;fill:#f4d78a;fill-opacity:1;stroke:#b08c3e;stroke-width:0.92984337;stroke-linecap:round;stroke-linejoin:round;stroke-miterlimit:4;stroke-dasharray:none;stroke-opacity:1"
           transform="matrix(0.92122336,6.215899,-5.7396334,2.553087,7663.2103,131.28821)" />
        <path
           transform="matrix(6.2814561,0,0,6.2838443,7663.2103,131.28821)"
           inkscape:connector-curvature="0"
           id="path39008"
           d="m -1350.3035,42.080445 -21.2061,-2.718735 1.6312,2.718735 18.4874,5.437469 z"
           style="fill:#f0ce5f;fill-opacity:1;fill-rule:evenodd;stroke:#b08c3e;stroke-width:1px;stroke-linecap:round;stroke-linejoin:round;stroke-opacity:1" />
        <ellipse
           ry="7.2753854"
           rx="4.5566511"
           cy="40.721077"
           cx="1366.8878"
           id="ellipse39010"
           style="opacity:1;fill:#f4d78a;fill-opacity:1;stroke:#b08c3e;stroke-width:1.13039577;stroke-linecap:round;stroke-linejoin:round;stroke-miterlimit:4;stroke-dasharray:none;stroke-opacity:1"
           transform="matrix(-6.2814561,0,0,6.2838443,7663.2103,131.28821)" />
        <ellipse
           ry="7.421577"
           rx="2.4609928"
           cy="-1301.7603"
           cx="-243.79225"
           id="ellipse39014"
           style="opacity:1;fill:#f4d78a;fill-opacity:1;stroke:#b08c3e;stroke-width:0.83904046;stroke-linecap:round;stroke-linejoin:round;stroke-miterlimit:4;stroke-dasharray:none;stroke-opacity:1"
           transform="matrix(1.1770274,-6.1725402,6.1701942,1.177475,7663.2103,131.28821)" />
        <ellipse
           ry="4.7018585"
           rx="1.5876944"
           cy="-1287.921"
           cx="404.75116"
           id="ellipse39020"
           style="opacity:1;fill:#f4d78a;fill-opacity:1;stroke:#b08c3e;stroke-width:1.00000393;stroke-linecap:round;stroke-linejoin:round;stroke-miterlimit:4;stroke-dasharray:none;stroke-opacity:1"
           transform="matrix(-1.5742246,6.0833076,6.0871834,1.5507149,7663.2103,131.28821)" />
        <ellipse
           transform="matrix(-5.6701018,-2.7041067,2.6463546,-5.6989631,7663.2103,131.28821)"
           style="opacity:1;fill:#f4d78a;fill-opacity:1;stroke:#b08c3e;stroke-width:0.9135679;stroke-linecap:round;stroke-linejoin:round;stroke-miterlimit:4;stroke-dasharray:none;stroke-opacity:1"
           id="ellipse39024"
           cx="1225.8768"
           cy="-601.2782"
           rx="1.6452774"
           ry="5.0628247" />
        <ellipse
           transform="matrix(6.2814561,0,0,6.2838443,7663.2103,131.28821)"
           style="opacity:1;fill:#f4d78a;fill-opacity:1;stroke:#b08c3e;stroke-width:1;stroke-linecap:round;stroke-linejoin:round;stroke-miterlimit:4;stroke-dasharray:none;stroke-opacity:1"
           id="path39028"
           cx="-1319.6737"
           cy="41.264824"
           rx="8.6999502"
           ry="7.8843303" />
        <ellipse
           transform="matrix(6.2814561,0,0,6.2838443,7663.2103,131.28821)"
           style="opacity:1;fill:#f4d78a;fill-opacity:1;stroke:#b08c3e;stroke-width:1;stroke-linecap:round;stroke-linejoin:round;stroke-miterlimit:4;stroke-dasharray:none;stroke-opacity:1"
           id="path39030"
           cx="-1330.0049"
           cy="21.418062"
           rx="7.6124568"
           ry="4.3499751" />
        <ellipse
           transform="matrix(6.2814561,0,0,6.2838443,7663.2103,131.28821)"
           style="opacity:1;fill:#f4d78a;fill-opacity:1;stroke:#b08c3e;stroke-width:0.75925314;stroke-linecap:round;stroke-linejoin:round;stroke-miterlimit:4;stroke-dasharray:none;stroke-opacity:1"
           id="path39032"
           cx="-1304.4489"
           cy="23.321177"
           rx="5.0140958"
           ry="6.3734627" />
        <path
           transform="matrix(6.2814561,0,0,6.2838443,7663.2103,131.28821)"
           style="fill:#f0ce5f;fill-opacity:1;fill-rule:evenodd;stroke:#b08c3e;stroke-width:0.89734501;stroke-linecap:round;stroke-linejoin:round;stroke-miterlimit:4;stroke-dasharray:none;stroke-opacity:1"
           d="m -1337.8661,58.449009 -2.515,7.558674 -1.0909,-1.076943 0.6264,-7.194992 z"
           id="path39034"
           inkscape:connector-curvature="0" />
        <ellipse
           transform="matrix(-1.5424592,6.0914456,-4.7927076,-4.0619187,7663.2103,131.28821)"
           style="opacity:1;fill:#f4d78a;fill-opacity:1;stroke:#b08c3e;stroke-width:1.05508494;stroke-linecap:round;stroke-linejoin:round;stroke-miterlimit:4;stroke-dasharray:none;stroke-opacity:1"
           id="ellipse39036"
           cx="1018.7803"
           cy="1429.6365"
           rx="1.7502773"
           ry="4.6018262" />
        <path
           style="fill:none;fill-rule:evenodd;stroke:#ff0000;stroke-width:56;stroke-linecap:round;stroke-linejoin:round;stroke-miterlimit:4;stroke-dasharray:none;stroke-opacity:1"
           d="M -370.45746,67.734176 -917.06193,657.20955"
           id="path4326"
           inkscape:connector-curvature="0"
           sodipodi:nodetypes="cc" />
      </g>
    </g>
  </g>
</svg>
